<svg width="32" height="32" viewBox="0 0 32 32" fill="none" xmlns="http://www.w3.org/2000/svg">
<g clip-path="url(#clip0_1359_3626)">
<rect width="32" height="32" rx="16" fill="#51E16A"/>
<path d="M14.8616 20.8C14.7386 20.7996 14.6169 20.7768 14.5041 20.7329C14.3914 20.689 14.29 20.625 14.2063 20.5449L9.84343 16.4239C9.68034 16.2696 9.59298 16.0641 9.60055 15.8526C9.60813 15.6411 9.71003 15.4409 9.88383 15.2961C10.0576 15.1513 10.2891 15.0737 10.5273 15.0804C10.7655 15.0871 10.991 15.1776 11.1541 15.3319L14.8527 18.8311L22.4024 11.4979C22.479 11.4132 22.5744 11.3433 22.6825 11.2925C22.7907 11.2417 22.9094 11.211 23.0314 11.2024C23.1533 11.1939 23.276 11.2075 23.3918 11.2425C23.5077 11.2776 23.6142 11.3332 23.7049 11.4062C23.7956 11.4791 23.8686 11.5677 23.9193 11.6666C23.97 11.7654 23.9975 11.8725 23.9999 11.9811C24.0024 12.0897 23.9798 12.1976 23.9335 12.2982C23.8873 12.3988 23.8184 12.49 23.731 12.566L15.526 20.5369C15.443 20.6185 15.342 20.684 15.2293 20.7292C15.1165 20.7745 14.9944 20.7986 14.8706 20.8H14.8616Z" fill="white"/>
</g>
<defs>
<clipPath id="clip0_1359_3626">
<rect width="32" height="32" fill="white"/>
</clipPath>
</defs>
</svg>
