<svg width="280" height="80" viewBox="0 0 280 80" fill="none" xmlns="http://www.w3.org/2000/svg">
<path d="M7 10H19.9L29 20.7L38.1 10H51L29 35.7L7 10Z" fill="#E94A27"/>
<path d="M12.8999 69.9996H25.7999L57.9999 32.9996V18.5996L12.8999 69.9996Z" fill="#E94A27"/>
<path d="M22.6 44.2996L0 69.9996V18.5996L22.6 44.2996Z" fill="#E94A27"/>
<path d="M75.3999 70H76.4999V62.4H80.6999V70H81.7999V61.5H75.3999V70Z" fill="#35346B"/>
<path d="M86.9 63.5C86.1 63.5 85.5 63.8 85.1 64.3L85 63.7H84V72.5H85.1V69.4C85.5 69.9 86.1 70.1 86.9 70.1C87.7 70.1 88.3 69.8 88.7 69.2C89.1 68.6 89.4 67.8 89.4 66.9V66.8C89.4 65.8 89.2 65 88.7 64.4C88.2 63.8 87.6 63.5 86.9 63.5ZM87.8 68.6C87.5 69 87.1 69.2 86.6 69.2C85.9 69.2 85.4 68.9 85.1 68.3V65.3C85.4 64.7 85.9 64.4 86.6 64.4C87.1 64.4 87.5 64.6 87.9 65C88.3 65.4 88.4 66 88.4 66.7C88.3 67.6 88.1 68.2 87.8 68.6Z" fill="#35346B"/>
<path d="M95.7998 65.6006C95.7998 65.0006 95.5998 64.5006 95.1998 64.1006C94.7998 63.7006 94.1998 63.6006 93.4998 63.6006C92.9998 63.6006 92.5998 63.7006 92.1998 63.9006C91.7998 64.1006 91.4998 64.3006 91.2998 64.6006C91.0998 64.9006 90.9998 65.1006 90.9998 65.4006H92.0998C92.0998 65.1006 92.1998 64.9006 92.4998 64.7006C92.7998 64.5006 93.0998 64.4006 93.4998 64.4006C93.8998 64.4006 94.2998 64.5006 94.4998 64.7006C94.6998 64.9006 94.7998 65.2006 94.7998 65.6006V66.1006H93.6998C92.7998 66.1006 92.0998 66.3006 91.5998 66.6006C91.0998 66.9006 90.7998 67.5006 90.7998 68.1006C90.7998 68.6006 90.9998 69.1006 91.3998 69.4006C91.7998 69.7006 92.2998 69.9006 92.8998 69.9006C93.5998 69.9006 94.1998 69.6006 94.6998 69.1006C94.6998 69.4006 94.7998 69.6006 94.8998 69.8006H95.9998V69.7006C95.8998 69.4006 95.7998 68.9006 95.7998 68.3006V65.6006ZM94.7998 68.2006C94.6998 68.5006 94.3998 68.7006 94.0998 68.9006C93.7998 69.1006 93.4998 69.2006 93.0998 69.2006C92.6998 69.2006 92.4998 69.1006 92.1998 68.9006C91.8998 68.7006 91.8998 68.4006 91.8998 68.1006C91.8998 67.3006 92.5998 66.9006 93.8998 66.9006H94.6998V68.2006H94.7998Z" fill="#35346B"/>
<path d="M102 66.7002C102.3 66.6002 102.6 66.4002 102.8 66.2002C103 66.0002 103.1 65.7002 103.1 65.4002C103.1 64.8002 102.9 64.4002 102.4 64.1002C101.9 63.8002 101.3 63.7002 100.5 63.7002H98V70.0002H100.9C101.7 70.0002 102.3 69.8002 102.7 69.5002C103.1 69.2002 103.3 68.7002 103.3 68.2002C103.3 67.8002 103.2 67.5002 103 67.3002C102.8 67.1002 102.4 66.8002 102 66.7002ZM99 64.5002H100.5C101.5 64.5002 101.9 64.8002 101.9 65.4002C101.9 66.0002 101.4 66.3002 100.4 66.3002H99V64.5002ZM101.9 68.9002C101.7 69.1002 101.3 69.2002 100.9 69.2002H99V67.3002H100.8C101.7 67.3002 102.2 67.6002 102.2 68.2002C102.2 68.5002 102.1 68.7002 101.9 68.9002Z" fill="#35346B"/>
<path d="M106.2 68.3002V63.7002H105.1V70.0002H106.2L109.1 65.4002V70.0002H110.2V63.7002H109.1L106.2 68.3002Z" fill="#35346B"/>
<path d="M111.7 64.5002H113.8V70.0002H114.9V64.5002H117V63.7002H111.7V64.5002Z" fill="#35346B"/>
<path d="M120.8 63.5C120.3 63.5 119.8 63.6 119.4 63.9C119 64.2 118.6 64.6 118.4 65.1C118.2 65.6 118 66.2 118 66.8V67C118 67.9 118.3 68.7 118.8 69.3C119.3 69.9 120 70.1 120.9 70.1C122 70.1 122.8 69.7 123.3 68.9L122.6 68.4C122.4 68.7 122.2 68.9 121.9 69C121.6 69.1 121.3 69.2 120.9 69.2C120.4 69.2 119.9 69 119.6 68.6C119.3 68.2 119.1 67.7 119.1 67.1H123.4V66.6C123.4 65.6 123.2 64.8 122.7 64.3C122.2 63.8 121.6 63.5 120.8 63.5ZM122.3 66.3H119.1C119.2 65.7 119.4 65.3 119.7 65C120 64.7 120.4 64.5 120.8 64.5C121.3 64.5 121.6 64.7 121.9 65C122.2 65.3 122.3 65.6 122.3 66.3Z" fill="#35346B"/>
<path d="M126 66.4002C126 67.4002 125.9 68.1002 125.7 68.4002C125.5 68.7002 125.3 69.0002 125 69.0002H124.7V70.0002H125.1C125.7 70.0002 126.2 69.7002 126.5 69.3002C126.8 68.9002 127 68.1002 127 67.0002L127.1 64.6002H129.3V70.0002H130.4V63.7002H126.1L126 66.4002Z" fill="#35346B"/>
<path d="M135.3 65.8006H133.7V63.6006H132.6V70.0006H135.3C136 70.0006 136.6 69.8006 137 69.4006C137.4 69.0006 137.6 68.5006 137.6 67.9006C137.6 67.3006 137.4 66.8006 137 66.4006C136.6 66.0006 136 65.9006 135.3 65.8006ZM136.2 68.8006C136 69.0006 135.7 69.1006 135.3 69.1006H133.7V66.7006H135.4C135.8 66.7006 136.1 66.8006 136.3 67.0006C136.5 67.2006 136.6 67.5006 136.6 67.9006C136.5 68.3006 136.4 68.6006 136.2 68.8006Z" fill="#35346B"/>
<path d="M140.6 65C140.9 64.6 141.3 64.4 141.9 64.4C142.3 64.4 142.7 64.5 142.9 64.8C143.1 65.1 143.3 65.4 143.4 65.8H144.4C144.4 65.1 144.1 64.6 143.6 64.1C143.1 63.6 142.5 63.5 141.8 63.5C141.2 63.5 140.7 63.6 140.3 63.9C139.9 64.2 139.6 64.5 139.3 65C139 65.5 139 66 139 66.6V66.8C139 67.8 139.3 68.6 139.8 69.2C140.3 69.8 141 70.1 141.9 70.1C142.3 70.1 142.7 70 143.1 69.8C143.5 69.6 143.8 69.3 144 69C144.2 68.7 144.4 68.3 144.4 68H143.4C143.4 68.4 143.2 68.6 142.9 68.9C142.6 69.2 142.3 69.3 141.9 69.3C141.3 69.3 140.9 69.1 140.6 68.7C140.3 68.3 140.1 67.7 140.1 67V66.8C140.2 66 140.3 65.4 140.6 65Z" fill="#35346B"/>
<path d="M145.5 64.5002H147.6V70.0002H148.7V64.5002H150.8V63.7002H145.5V64.5002Z" fill="#35346B"/>
<path d="M156.4 66.7002C156.7 66.6002 157 66.4002 157.2 66.2002C157.4 66.0002 157.5 65.7002 157.5 65.4002C157.5 64.8002 157.3 64.4002 156.8 64.1002C156.3 63.8002 155.7 63.7002 154.9 63.7002H152.4V70.0002H155.3C156.1 70.0002 156.7 69.8002 157.1 69.5002C157.5 69.2002 157.7 68.7002 157.7 68.2002C157.7 67.8002 157.6 67.5002 157.4 67.3002C157.2 67.1002 156.8 66.8002 156.4 66.7002ZM153.4 64.5002H154.9C155.9 64.5002 156.3 64.8002 156.3 65.4002C156.3 66.0002 155.8 66.3002 154.8 66.3002H153.4V64.5002ZM156.2 68.9002C156 69.1002 155.6 69.2002 155.2 69.2002H153.4V67.3002H155.2C156.1 67.3002 156.6 67.6002 156.6 68.2002C156.6 68.5002 156.4 68.7002 156.2 68.9002Z" fill="#35346B"/>
<path d="M164.2 65.6006C164.2 65.0006 164 64.5006 163.6 64.1006C163.2 63.7006 162.6 63.6006 161.9 63.6006C161.4 63.6006 161 63.7006 160.6 63.9006C160.2 64.1006 159.9 64.3006 159.7 64.6006C159.5 64.9006 159.4 65.2006 159.4 65.5006H160.5C160.5 65.2006 160.6 65.0006 160.9 64.8006C161.2 64.6006 161.5 64.5006 161.9 64.5006C162.3 64.5006 162.7 64.6006 162.9 64.8006C163.1 65.0006 163.2 65.3006 163.2 65.7006V66.2006H162.1C161.2 66.2006 160.5 66.4006 160 66.7006C159.5 67.0006 159.2 67.6006 159.2 68.2006C159.2 68.7006 159.4 69.2006 159.8 69.5006C160.2 69.8006 160.7 70.0006 161.3 70.0006C162 70.0006 162.6 69.7006 163.1 69.2006C163.1 69.5006 163.2 69.7006 163.3 69.9006H164.4V69.8006C164.3 69.5006 164.2 69.0006 164.2 68.4006V65.6006ZM163.1 68.2006C163 68.5006 162.7 68.7006 162.4 68.9006C162.1 69.1006 161.8 69.2006 161.4 69.2006C161 69.2006 160.8 69.1006 160.5 68.9006C160.2 68.7006 160.2 68.4006 160.2 68.1006C160.2 67.3006 160.9 66.9006 162.2 66.9006H163V68.2006H163.1Z" fill="#35346B"/>
<path d="M175.4 61.5H168.8V62.4H171.6V70H172.7V62.4H175.4V61.5Z" fill="#35346B"/>
<path d="M178 68.4006L176.4 63.6006H175.2L177.5 69.9006L177.3 70.5006C177.2 70.9006 177 71.2006 176.8 71.3006C176.6 71.4006 176.3 71.5006 175.9 71.5006H175.6V72.4006L176 72.5006H176.2C177.1 72.5006 177.7 72.0006 178.1 70.9006L180.6 63.6006H179.4L178 68.4006Z" fill="#35346B"/>
<path d="M182.4 66.4002C182.4 67.4002 182.3 68.1002 182.1 68.4002C181.9 68.7002 181.7 69.0002 181.3 69.0002H181V70.0002H181.4C182 70.0002 182.5 69.7002 182.8 69.3002C183.1 68.9002 183.3 68.1002 183.3 67.0002L183.4 64.6002H185.6V70.0002H186.7V63.7002H182.4V66.4002Z" fill="#35346B"/>
<path d="M191.6 65.8006H190V63.6006H188.9V70.0006H191.6C192.3 70.0006 192.9 69.8006 193.3 69.4006C193.7 69.0006 193.9 68.5006 193.9 67.9006C193.9 67.3006 193.7 66.8006 193.3 66.4006C192.9 66.0006 192.4 65.9006 191.6 65.8006ZM192.5 68.8006C192.3 69.0006 192 69.1006 191.6 69.1006H190V66.7006H191.7C192.1 66.7006 192.4 66.8006 192.6 67.0006C192.8 67.2006 192.9 67.5006 192.9 67.9006C192.9 68.3006 192.8 68.6006 192.5 68.8006Z" fill="#35346B"/>
<path d="M197 65C197.3 64.6 197.7 64.4 198.3 64.4C198.7 64.4 199.1 64.5 199.3 64.8C199.5 65.1 199.7 65.4 199.8 65.8H200.8C200.8 65.1 200.5 64.6 200 64.1C199.5 63.6 198.9 63.5 198.2 63.5C197.6 63.5 197.1 63.6 196.7 63.9C196.3 64.2 196 64.5 195.7 65C195.4 65.5 195.4 66 195.4 66.6V66.8C195.4 67.8 195.7 68.6 196.2 69.2C196.7 69.8 197.4 70.1 198.3 70.1C198.7 70.1 199.1 70 199.5 69.8C199.9 69.6 200.2 69.3 200.4 69C200.6 68.7 200.8 68.3 200.8 68H199.8C199.8 68.4 199.6 68.6 199.3 68.9C199 69.2 198.7 69.3 198.3 69.3C197.7 69.3 197.3 69.1 197 68.7C196.7 68.3 196.5 67.7 196.5 67V66.8C196.5 66 196.7 65.4 197 65Z" fill="#35346B"/>
<path d="M207.7 63.7002H206.4L204.3 66.3002H203.6V63.7002H202.5V70.0002H203.6V67.3002H204.4L206.6 70.0002H207.9L205.2 66.7002L207.7 63.7002Z" fill="#35346B"/>
<path d="M211.5 63.5C210.9 63.5 210.4 63.6 210 63.9C209.6 64.2 209.2 64.6 209 65C208.8 65.4 208.6 66.1 208.6 66.7V66.8C208.6 67.8 208.9 68.6 209.4 69.2C209.9 69.8 210.6 70.1 211.5 70.1C212.1 70.1 212.6 70 213 69.7C213.4 69.4 213.8 69 214 68.6C214.2 68.2 214.4 67.6 214.4 66.9V66.8C214.4 65.8 214.1 65 213.6 64.4C213.1 63.8 212.4 63.5 211.5 63.5ZM212.8 68.6C212.5 69 212 69.2 211.5 69.2C211 69.2 210.5 69 210.2 68.6C209.9 68.2 209.7 67.6 209.7 66.9C209.7 66.1 209.9 65.5 210.2 65.1C210.5 64.7 211 64.5 211.5 64.5C212 64.5 212.5 64.7 212.8 65.1C213.1 65.5 213.3 66.1 213.3 66.8C213.3 67.6 213.1 68.2 212.8 68.6Z" fill="#35346B"/>
<path d="M218.7 62.9004C219.2 62.9004 219.6 62.8004 220 62.5004C220.4 62.2004 220.5 61.8004 220.5 61.4004H219.6C219.6 61.7004 219.5 61.9004 219.4 62.0004C219.3 62.1004 219 62.2004 218.8 62.2004C218.5 62.2004 218.3 62.1004 218.1 62.0004C217.9 61.9004 217.9 61.6004 217.9 61.4004H217C217 61.9004 217.2 62.3004 217.5 62.5004C217.8 62.7004 218.2 62.9004 218.7 62.9004Z" fill="#35346B"/>
<path d="M217.3 68.3002V63.7002H216.2V70.0002H217.3L220.2 65.4002V70.0002H221.3V63.7002H220.2L217.3 68.3002Z" fill="#35346B"/>
<path d="M229.1 63.5C228.5 63.5 228 63.6 227.6 63.9C227.2 64.2 226.8 64.6 226.6 65C226.4 65.4 226.2 66.1 226.2 66.7V66.8C226.2 67.8 226.5 68.6 227 69.2C227.5 69.8 228.2 70.1 229.1 70.1C229.7 70.1 230.2 70 230.6 69.7C231 69.4 231.4 69 231.6 68.6C231.8 68.2 232 67.6 232 66.9V66.8C232 65.8 231.7 65 231.2 64.4C230.7 63.8 229.9 63.5 229.1 63.5ZM230.4 68.6C230.1 69 229.6 69.2 229.1 69.2C228.6 69.2 228.1 69 227.8 68.6C227.5 68.2 227.3 67.6 227.3 66.9C227.3 66.1 227.5 65.5 227.8 65.1C228.1 64.7 228.6 64.5 229.1 64.5C229.6 64.5 230.1 64.7 230.4 65.1C230.7 65.5 230.9 66.1 230.9 66.8C230.9 67.6 230.7 68.2 230.4 68.6Z" fill="#35346B"/>
<path d="M236.5 64.0004C235.7 64.0004 235 64.3004 234.4 65.0004C234.5 64.4004 234.7 63.9004 235 63.6004C235.3 63.3004 235.8 63.0004 236.5 62.8004L237.3 62.6004C237.8 62.5004 238.1 62.3004 238.4 62.0004C238.7 61.7004 238.7 61.3004 238.7 60.9004H237.8C237.8 61.1004 237.7 61.3004 237.5 61.5004C237.3 61.7004 236.9 61.8004 236.4 61.9004C235.4 62.1004 234.7 62.6004 234.2 63.3004C233.7 64.0004 233.5 65.1004 233.5 66.5004V67.0004C233.5 68.0004 233.8 68.7004 234.3 69.3004C234.8 69.9004 235.5 70.2004 236.4 70.2004C237 70.2004 237.5 70.1004 237.9 69.8004C238.3 69.5004 238.7 69.2004 238.9 68.7004C239.1 68.2004 239.2 67.7004 239.2 67.1004V67.0004C239.2 66.1004 239 65.4004 238.5 64.9004C238 64.4004 237.3 64.0004 236.5 64.0004ZM237.6 68.6004C237.3 69.0004 236.9 69.2004 236.3 69.2004C235.8 69.2004 235.3 69.0004 235 68.6004C234.7 68.2004 234.5 67.7004 234.5 67.0004V66.9004C234.5 66.3004 234.7 65.8004 235 65.4004C235.3 65.0004 235.7 64.9004 236.3 64.9004C236.8 64.9004 237.3 65.1004 237.6 65.4004C237.9 65.7004 238.1 66.2004 238.1 66.8004C238 67.7004 237.9 68.2004 237.6 68.6004Z" fill="#35346B"/>
<path d="M241.5 66.4002C241.5 67.4002 241.4 68.1002 241.2 68.4002C241 68.7002 240.8 69.0002 240.4 69.0002H240.1V70.0002H240.5C241.1 70.0002 241.6 69.7002 241.9 69.3002C242.2 68.9002 242.4 68.1002 242.4 67.0002L242.5 64.6002H244.7V70.0002H245.8V63.7002H241.5V66.4002Z" fill="#35346B"/>
<path d="M252.8 65.6006C252.8 65.0006 252.6 64.5006 252.2 64.1006C251.8 63.7006 251.2 63.6006 250.5 63.6006C250 63.6006 249.6 63.7006 249.2 63.9006C248.8 64.1006 248.5 64.3006 248.3 64.6006C248.1 64.9006 248 65.2006 248 65.5006H249.1C249.1 65.2006 249.2 65.0006 249.5 64.8006C249.8 64.6006 250.1 64.5006 250.5 64.5006C250.9 64.5006 251.3 64.6006 251.5 64.8006C251.7 65.0006 251.8 65.3006 251.8 65.7006V66.2006H250.7C249.8 66.2006 249.1 66.4006 248.6 66.7006C248.1 67.0006 247.8 67.6006 247.8 68.2006C247.8 68.7006 248 69.2006 248.4 69.5006C248.8 69.8006 249.3 70.0006 249.9 70.0006C250.6 70.0006 251.2 69.7006 251.7 69.2006C251.7 69.5006 251.8 69.7006 251.9 69.9006H253V69.8006C252.9 69.5006 252.8 69.0006 252.8 68.4006V65.6006ZM251.7 68.2006C251.6 68.5006 251.3 68.7006 251 68.9006C250.7 69.1006 250.4 69.2006 250 69.2006C249.6 69.2006 249.4 69.1006 249.1 68.9006C248.8 68.7006 248.8 68.4006 248.8 68.1006C248.8 67.3006 249.5 66.9006 250.8 66.9006H251.6V68.2006H251.7Z" fill="#35346B"/>
<path d="M256 65C256.3 64.6 256.7 64.4 257.3 64.4C257.7 64.4 258.1 64.5 258.3 64.8C258.5 65.1 258.7 65.4 258.8 65.8H259.8C259.8 65.1 259.5 64.6 259 64.1C258.5 63.6 257.9 63.5 257.2 63.5C256.6 63.5 256.1 63.6 255.7 63.9C255.3 64.2 255 64.5 254.7 65C254.4 65.5 254.4 66 254.4 66.6V66.8C254.4 67.8 254.7 68.6 255.2 69.2C255.7 69.8 256.4 70.1 257.3 70.1C257.7 70.1 258.1 70 258.5 69.8C258.9 69.6 259.2 69.3 259.4 69C259.6 68.7 259.8 68.3 259.8 68H258.8C258.8 68.4 258.6 68.6 258.3 68.9C258 69.2 257.7 69.3 257.3 69.3C256.7 69.3 256.3 69.1 256 68.7C255.7 68.3 255.5 67.7 255.5 67V66.8C255.6 66 255.7 65.4 256 65Z" fill="#35346B"/>
<path d="M260.9 64.5002H263V70.0002H264.1V64.5002H266.2V63.7002H260.9V64.5002Z" fill="#35346B"/>
<path d="M271.7 63.7002L268.8 68.3002V63.7002H267.7V70.0002H268.8L271.7 65.4002V70.0002H272.8V63.7002H271.7Z" fill="#35346B"/>
<path d="M79.6 18.6002H78V24.4002H75V10.2002H78V15.9002H79.3L82.8 10.2002H86.4L82 16.9002L86.8 24.4002H83.3L79.6 18.6002Z" fill="#35346B"/>
<path d="M100.2 17.6004C100.2 19.0004 100 20.2004 99.5001 21.3004C99.0001 22.4004 98.3001 23.2004 97.4001 23.7004C96.5001 24.3004 95.4001 24.6004 94.2001 24.6004C93.0001 24.6004 92.0001 24.3004 91.0001 23.8004C90.0001 23.3004 89.4001 22.4004 88.9001 21.4004C88.4001 20.3004 88.1001 19.1004 88.1001 17.8004V17.0004C88.1001 15.6004 88.4001 14.4004 88.9001 13.3004C89.4001 12.2004 90.1001 11.4004 91.0001 10.8004C91.9001 10.2004 93.0001 9.90039 94.2001 9.90039C95.4001 9.90039 96.4001 10.2004 97.4001 10.8004C98.3001 11.4004 99.0001 12.2004 99.5001 13.3004C100 14.4004 100.3 15.6004 100.3 17.0004V17.6004H100.2ZM97.2001 16.9004C97.2001 15.4004 96.9001 14.3004 96.4001 13.5004C95.9001 12.7004 95.1001 12.3004 94.1001 12.3004C93.1001 12.3004 92.4001 12.7004 91.8001 13.4004C91.3001 14.2004 91.0001 15.3004 91.0001 16.8004V17.5004C91.0001 19.0004 91.3001 20.1004 91.8001 20.9004C92.3001 21.7004 93.1001 22.1004 94.1001 22.1004C95.1001 22.1004 95.8001 21.7004 96.4001 20.9004C97.0001 20.1004 97.2001 19.0004 97.2001 17.5004V16.9004Z" fill="#35346B"/>
<path d="M106.5 19.4002V24.4002H103.6V10.2002H109.1C110.2 10.2002 111.1 10.4002 111.9 10.8002C112.7 11.2002 113.3 11.7002 113.8 12.5002C114.2 13.2002 114.5 14.0002 114.5 15.0002C114.5 16.4002 114 17.5002 113.1 18.3002C112.1 19.1002 110.8 19.5002 109.1 19.5002H106.5V19.4002ZM106.5 17.0002H109.1C109.9 17.0002 110.5 16.8002 110.9 16.5002C111.3 16.1002 111.5 15.6002 111.5 14.9002C111.5 14.2002 111.3 13.6002 110.9 13.2002C110.5 12.8002 109.9 12.5002 109.2 12.5002H106.5V17.0002Z" fill="#35346B"/>
<path d="M128.7 24.4002H125.8V12.5002H120V24.3002H117.1V10.2002H128.7V24.4002Z" fill="#35346B"/>
<path d="M144.1 17.6004C144.1 19.0004 143.9 20.2004 143.4 21.3004C142.9 22.4004 142.2 23.2004 141.3 23.7004C140.4 24.3004 139.3 24.6004 138.1 24.6004C136.9 24.6004 135.9 24.3004 134.9 23.8004C133.9 23.3004 133.3 22.4004 132.8 21.4004C132.3 20.3004 132 19.1004 132 17.8004V17.0004C132 15.6004 132.3 14.4004 132.8 13.3004C133.3 12.2004 134 11.4004 134.9 10.8004C135.8 10.2004 136.9 9.90039 138.1 9.90039C139.3 9.90039 140.3 10.2004 141.3 10.8004C142.2 11.4004 142.9 12.2004 143.4 13.3004C143.9 14.4004 144.2 15.6004 144.2 17.0004V17.6004H144.1ZM141.1 16.9004C141.1 15.4004 140.8 14.3004 140.3 13.5004C139.8 12.7004 139 12.3004 138 12.3004C137 12.3004 136.3 12.7004 135.7 13.4004C135.2 14.2004 134.9 15.3004 134.9 16.8004V17.5004C134.9 19.0004 135.2 20.1004 135.7 20.9004C136.2 21.7004 137 22.1004 138 22.1004C139 22.1004 139.7 21.7004 140.3 20.9004C140.9 20.1004 141.1 19.0004 141.1 17.5004V16.9004Z" fill="#35346B"/>
<path d="M149.9 19.4002V24.4002H147V10.2002H152.5C153.6 10.2002 154.5 10.4002 155.3 10.8002C156.1 11.2002 156.7 11.7002 157.2 12.5002C157.6 13.2002 157.9 14.0002 157.9 15.0002C157.9 16.4002 157.4 17.5002 156.5 18.3002C155.5 19.1002 154.2 19.5002 152.5 19.5002H149.9V19.4002ZM149.9 17.0002H152.5C153.3 17.0002 153.9 16.8002 154.3 16.5002C154.7 16.1002 154.9 15.6002 154.9 14.9002C154.9 14.2002 154.7 13.6002 154.3 13.2002C153.9 12.8002 153.3 12.5002 152.6 12.5002H149.9V17.0002Z" fill="#35346B"/>
<path d="M167.2 21.4006H162.1L161.1 24.3006H158L163.3 10.1006H166L171.3 24.3006H168.2L167.2 21.4006ZM162.9 19.1006H166.5L164.7 13.8006L162.9 19.1006Z" fill="#35346B"/>
<path d="M183.1 12.5006H178.7V24.3006H175.8V12.5006H171.5V10.1006H183.1V12.5006Z" fill="#35346B"/>
<path d="M194.1 10.2002H197V24.4002H194.1V15.0002L188.4 24.4002H185.5V10.2002H188.4V19.7002L194.1 10.2002Z" fill="#35346B"/>
<path d="M200.9 24.4002V10.2002H205.9C207.6 10.2002 208.9 10.5002 209.8 11.2002C210.7 11.9002 211.1 12.8002 211.1 14.1002C211.1 14.8002 210.9 15.4002 210.6 15.9002C210.2 16.4002 209.7 16.8002 209.1 17.1002C209.8 17.3002 210.4 17.7002 210.8 18.2002C211.2 18.8002 211.4 19.4002 211.4 20.2002C211.4 21.6002 211 22.6002 210.1 23.3002C209.2 24.0002 208 24.4002 206.4 24.4002H200.9ZM203.8 16.1002H206C207.5 16.1002 208.2 15.5002 208.2 14.3002C208.2 13.7002 208 13.2002 207.6 12.9002C207.2 12.6002 206.6 12.5002 205.8 12.5002H203.7V16.1002H203.8ZM203.8 18.2002V22.0002H206.3C207 22.0002 207.5 21.8002 207.9 21.5002C208.3 21.2002 208.5 20.7002 208.5 20.1002C208.5 18.8002 207.8 18.1002 206.5 18.1002H203.8V18.2002Z" fill="#35346B"/>
<path d="M226 24.4002H223.1V18.3002H217.4V24.4002H214.5V10.2002H217.4V16.0002H223.1V10.2002H226V24.4002Z" fill="#35346B"/>
<path d="M232.8 15.3002H235.1C236.8 15.3002 238.1 15.7002 239.1 16.5002C240.1 17.3002 240.6 18.4002 240.6 19.8002C240.6 21.2002 240.1 22.3002 239.1 23.1002C238.1 23.9002 236.8 24.4002 235.2 24.4002H229.9V10.2002H232.8V15.3002ZM232.8 17.6002V22.0002H235.1C235.8 22.0002 236.4 21.8002 236.9 21.4002C237.4 21.0002 237.6 20.4002 237.6 19.7002C237.6 19.1002 237.4 18.5002 237 18.2002C236.6 17.8002 236 17.6002 235.2 17.6002H232.8ZM244.7 24.4002H241.8V10.2002H244.7V24.4002Z" fill="#35346B"/>
<path d="M257.1 10.2004H260V24.4004H257.1V15.0004L251.4 24.4004H248.5V10.2004H251.4V19.7004L257.1 10.2004ZM257.7 6.40039C257.7 7.30039 257.4 8.00039 256.8 8.50039C256.2 9.00039 255.4 9.30039 254.4 9.30039C253.4 9.30039 252.6 9.00039 252 8.50039C251.4 8.00039 251.1 7.30039 251.1 6.40039H253.1C253.1 6.80039 253.2 7.10039 253.5 7.40039C253.8 7.70039 254.1 7.70039 254.5 7.70039C254.9 7.70039 255.3 7.60039 255.5 7.40039C255.7 7.20039 255.9 6.90039 255.9 6.40039H257.7Z" fill="#35346B"/>
<path d="M80.3001 42.9002L82.9001 36.2002H86.1001L81.1001 47.9002L80.7001 48.7002C80.0001 50.0002 78.8001 50.6002 77.3001 50.6002H76.3001V48.2002C76.5001 48.2002 76.7001 48.2002 77.1001 48.2002C77.5001 48.2002 77.8001 48.1002 78.1001 48.0002C78.4001 47.9002 78.6001 47.6002 78.7001 47.2002L79.1001 46.3002L74.1001 36.2002H77.3001L80.3001 42.9002Z" fill="#35346B"/>
<path d="M100.5 50.4002H97.6V44.3002H91.9V50.4002H89V36.2002H91.9V42.0002H97.6V36.2002H100.5V50.4002Z" fill="#35346B"/>
<path d="M112.9 36.2002H115.8V50.4002H112.9V41.0002L107.2 50.4002H104.3V36.2002H107.2V45.7002L112.9 36.2002Z" fill="#35346B"/>
<path d="M119.7 50.4002V36.2002H124.7C126.4 36.2002 127.7 36.5002 128.6 37.2002C129.5 37.9002 129.9 38.8002 129.9 40.1002C129.9 40.8002 129.7 41.4002 129.4 41.9002C129 42.4002 128.5 42.8002 127.9 43.1002C128.6 43.3002 129.2 43.7002 129.6 44.2002C130 44.8002 130.2 45.4002 130.2 46.2002C130.2 47.6002 129.8 48.6002 128.9 49.3002C128 50.0002 126.8 50.4002 125.2 50.4002H119.7ZM122.6 42.1002H124.8C126.3 42.1002 127 41.5002 127 40.3002C127 39.7002 126.8 39.2002 126.4 38.9002C126 38.6002 125.4 38.5002 124.6 38.5002H122.5V42.1002H122.6ZM122.6 44.2002V48.0002H125.1C125.8 48.0002 126.3 47.8002 126.7 47.5002C127.1 47.2002 127.3 46.7002 127.3 46.1002C127.3 44.8002 126.6 44.1002 125.3 44.1002H122.6V44.2002Z" fill="#35346B"/>
<path d="M142.2 44.2002H136.6V48.0002H143.2V50.4002H133.7V36.2002H143.2V38.6002H136.6V42.0002H142.2V44.2002Z" fill="#35346B"/>
<path d="M149.2 45.4002V50.4002H146.3V36.2002H151.8C152.9 36.2002 153.8 36.4002 154.6 36.8002C155.4 37.2002 156 37.7002 156.5 38.5002C156.9 39.2002 157.2 40.0002 157.2 41.0002C157.2 42.4002 156.7 43.5002 155.8 44.3002C154.8 45.1002 153.5 45.5002 151.8 45.5002H149.2V45.4002ZM149.2 43.0002H151.8C152.6 43.0002 153.2 42.8002 153.6 42.5002C154 42.1002 154.2 41.6002 154.2 40.9002C154.2 40.2002 154 39.6002 153.6 39.2002C153.2 38.8002 152.6 38.5002 151.9 38.5002H149.2V43.0002Z" fill="#35346B"/>
<path d="M170.8 45.6004C170.7 47.1004 170.1 48.3004 169.1 49.2004C168.1 50.1004 166.7 50.5004 165.1 50.5004C163.3 50.5004 161.8 49.9004 160.8 48.7004C159.8 47.5004 159.2 45.8004 159.2 43.6004V42.7004C159.2 41.3004 159.4 40.1004 159.9 39.1004C160.4 38.1004 161.1 37.3004 162 36.7004C162.9 36.1004 163.9 35.9004 165.1 35.9004C166.7 35.9004 168.1 36.3004 169.1 37.2004C170.1 38.1004 170.7 39.3004 170.8 40.9004H167.9C167.8 40.0004 167.6 39.3004 167.1 38.9004C166.7 38.5004 166 38.3004 165.1 38.3004C164.1 38.3004 163.4 38.7004 162.9 39.3004C162.4 40.0004 162.2 41.1004 162.2 42.6004V43.7004C162.2 45.2004 162.4 46.4004 162.9 47.1004C163.4 47.8004 164.1 48.2004 165.1 48.2004C166 48.2004 166.7 48.0004 167.1 47.6004C167.5 47.2004 167.8 46.5004 167.9 45.7004H170.8V45.6004Z" fill="#35346B"/>
<path d="M182.5 36.2002H185.4V50.4002H182.5V41.0002L176.8 50.4002H173.9V36.2002H176.8V45.7002L182.5 36.2002Z" fill="#35346B"/>
<path d="M199.9 38.5006H195.5V50.3006H192.6V38.5006H188.3V36.1006H199.9V38.5006Z" fill="#35346B"/>
<path d="M211.4 44.2002H205.8V48.0002H212.4V50.4002H202.9V36.2002H212.4V38.6002H205.8V42.0002H211.4V44.2002Z" fill="#35346B"/>
<path d="M226.1 38.5006H221.7V50.3006H218.8V38.5006H214.5V36.1006H226.1V38.5006Z" fill="#35346B"/>
</svg>
