<svg width="136" height="136" viewBox="0 0 136 136" fill="none" xmlns="http://www.w3.org/2000/svg">
<path fill-rule="evenodd" clip-rule="evenodd" d="M70.85 99.1873C70.0939 98.4322 69.069 98.008 68.0003 98.008C66.9317 98.008 65.9068 98.4322 65.1507 99.1873L46.3321 118.006C45.9359 118.375 45.6181 118.82 45.3977 119.315C45.1773 119.81 45.0588 120.344 45.0492 120.885C45.0397 121.427 45.1393 121.964 45.3421 122.466C45.5449 122.969 45.8468 123.425 46.2297 123.808C46.6126 124.191 47.0687 124.492 47.5709 124.695C48.073 124.898 48.6108 124.998 49.1523 124.988C49.6937 124.979 50.2277 124.86 50.7224 124.64C51.217 124.419 51.6622 124.101 52.0314 123.705L68.0003 107.736L83.9693 123.705C84.3384 124.101 84.7836 124.419 85.2783 124.64C85.773 124.86 86.3069 124.979 86.8484 124.988C87.3898 124.998 87.9277 124.898 88.4298 124.695C88.9319 124.492 89.3881 124.191 89.771 123.808C90.1539 123.425 90.4558 122.969 90.6586 122.466C90.8614 121.964 90.961 121.427 90.9515 120.885C90.9419 120.344 90.8234 119.81 90.603 119.315C90.3826 118.82 90.0648 118.375 89.6686 118.006L70.85 99.1873ZM68.0003 11.9766C69.0698 11.9766 70.0955 12.4014 70.8518 13.1577C71.608 13.9139 72.0329 14.9396 72.0329 16.0091V26.7626C72.0329 27.8321 71.608 28.8578 70.8518 29.6141C70.0955 30.3703 69.0698 30.7952 68.0003 30.7952C66.9308 30.7952 65.9051 30.3703 65.1489 29.6141C64.3926 28.8578 63.9678 27.8321 63.9678 26.7626V16.0091C63.9678 14.9396 64.3926 13.9139 65.1489 13.1577C65.9051 12.4014 66.9308 11.9766 68.0003 11.9766Z" fill="#7B3D8E"/>
<path fill-rule="evenodd" clip-rule="evenodd" d="M118.542 106.07C119.495 106.07 120.439 105.882 121.319 105.517C122.2 105.153 123 104.618 123.674 103.944C124.348 103.27 124.883 102.47 125.248 101.589C125.612 100.708 125.8 99.7646 125.8 98.8114V29.9891C125.8 29.0359 125.612 28.092 125.248 27.2113C124.883 26.3307 124.348 25.5305 123.674 24.8565C123 24.1824 122.2 23.6478 121.319 23.283C120.439 22.9182 119.495 22.7305 118.542 22.7305H17.4588C15.5337 22.7305 13.6874 23.4952 12.3262 24.8565C10.9649 26.2177 10.2002 28.064 10.2002 29.9891V98.8114C10.2002 102.822 13.4477 106.07 17.4588 106.07H118.542ZM55.9025 69.777C55.9025 68.7075 55.4777 67.6818 54.7214 66.9255C53.9652 66.1693 52.9395 65.7444 51.87 65.7444C50.8005 65.7444 49.7748 66.1693 49.0185 66.9255C48.2623 67.6818 47.8374 68.7075 47.8374 69.777V80.5305C47.8374 81.6 48.2623 82.6257 49.0185 83.3819C49.7748 84.1382 50.8005 84.563 51.87 84.563C52.9395 84.563 53.9652 84.1382 54.7214 83.3819C55.4777 82.6257 55.9025 81.6 55.9025 80.5305V69.777ZM68.0002 54.9909C69.0697 54.9909 70.0954 55.4158 70.8516 56.172C71.6079 56.9283 72.0327 57.954 72.0327 59.0235V80.5305C72.0327 81.6 71.6079 82.6257 70.8516 83.3819C70.0954 84.1382 69.0697 84.563 68.0002 84.563C66.9307 84.563 65.905 84.1382 65.1487 83.3819C64.3925 82.6257 63.9676 81.6 63.9676 80.5305V59.0235C63.9676 57.954 64.3925 56.9283 65.1487 56.172C65.905 55.4158 66.9307 54.9909 68.0002 54.9909ZM88.163 48.27C88.163 47.2005 87.7381 46.1748 86.9819 45.4186C86.2256 44.6623 85.1999 44.2374 84.1304 44.2374C83.0609 44.2374 82.0352 44.6623 81.279 45.4186C80.5227 46.1748 80.0979 47.2005 80.0979 48.27V80.5305C80.0979 81.6 80.5227 82.6257 81.279 83.3819C82.0352 84.1382 83.0609 84.563 84.1304 84.563C85.1999 84.563 86.2256 84.1382 86.9819 83.3819C87.7381 82.6257 88.163 81.6 88.163 80.5305V48.27Z" fill="#7B3D8E"/>
</svg>
