<svg width="213" height="138" viewBox="0 0 213 138" fill="none" xmlns="http://www.w3.org/2000/svg">
<g clip-path="url(#clip0_1341_539)">
<path d="M168.086 83.4862L157.101 76.5021L149.529 71.7123L122.476 54.4797C126.556 51.8299 129.907 48.1989 132.221 43.9191C134.535 39.6393 135.738 34.8473 135.721 29.982C135.708 25.9954 134.886 22.053 133.303 18.3939C131.721 14.7348 129.412 11.4352 126.516 8.69536C123.57 5.86943 120.065 3.69183 116.226 2.30283C112.387 0.913823 108.3 0.344213 104.228 0.630648C100.156 0.917083 96.1886 2.05321 92.5821 3.9659C88.9756 5.87859 85.8097 8.52543 83.2882 11.7359C80.7667 14.9465 78.9457 18.6495 77.9422 22.6065C76.9387 26.5636 76.7751 30.6869 77.4619 34.711C78.1488 38.7351 79.6708 42.5708 81.9299 45.971C84.1891 49.3712 87.1354 52.2605 90.579 54.4529L66.0279 70.0934L63.4857 71.7123L55.8997 76.5423L52.809 78.509L44.9151 83.5263C44.3405 83.8974 43.8681 84.4065 43.5409 85.0071C43.2137 85.6078 43.0421 86.2808 43.042 86.9648V107.462C43.0613 109.286 43.4486 111.088 44.1807 112.758C44.9128 114.429 45.9747 115.935 47.3027 117.186C48.6307 118.436 50.1974 119.406 51.9091 120.037C53.6208 120.667 55.4421 120.946 57.2641 120.856C59.086 120.766 60.871 120.309 62.5121 119.512C64.1532 118.716 65.6167 117.596 66.8148 116.221C68.0129 114.845 68.921 113.242 69.4847 111.507C70.0483 109.772 70.256 107.941 70.0952 106.124L68.3425 87.7676L67.8341 82.4158L60.1141 87.3395L60.5824 92.2363L61.9204 106.887C61.9994 107.635 61.9197 108.392 61.6863 109.108C61.453 109.823 61.0713 110.482 60.5663 111.04C60.0612 111.598 59.4441 112.043 58.7553 112.347C58.0664 112.65 57.3213 112.805 56.5686 112.8C55.1492 112.8 53.788 112.237 52.7844 111.233C51.7807 110.229 51.2169 108.868 51.2169 107.449V89.1724L57.2777 85.3058L59.8064 83.7538L67.513 78.8302L72.5302 75.6459L101.135 57.4231C101.812 57.0225 102.356 56.4319 102.699 55.7249C103.043 55.0178 103.172 54.2254 103.069 53.4459C102.967 52.6664 102.637 51.9343 102.122 51.3403C101.607 50.7463 100.929 50.3166 100.172 50.1046C95.3747 48.5872 91.2788 45.4032 88.6247 41.1286C85.9707 36.8539 84.9338 31.7706 85.7015 26.798C86.4692 21.8253 88.9908 17.2915 92.8105 14.0163C96.6302 10.741 101.496 8.94067 106.527 8.94067C111.559 8.94067 116.424 10.741 120.244 14.0163C124.064 17.2915 126.585 21.8253 127.353 26.798C128.121 31.7706 127.084 36.8539 124.43 41.1286C121.776 45.4032 117.68 48.5872 112.882 50.1046C112.125 50.3166 111.447 50.7463 110.932 51.3403C110.417 51.9343 110.088 52.6664 109.985 53.4459C109.883 54.2254 110.011 55.0178 110.355 55.7249C110.699 56.4319 111.243 57.0225 111.919 57.4231L132.095 70.2674L145.475 78.8302L153.195 83.7538L156.526 85.8677L161.784 89.226V107.475C161.767 108.889 161.197 110.241 160.197 111.241C159.198 112.24 157.846 112.81 156.432 112.827C155.68 112.831 154.935 112.677 154.246 112.373C153.557 112.07 152.94 111.625 152.435 111.067C151.93 110.508 151.548 109.85 151.315 109.135C151.081 108.419 151.002 107.662 151.081 106.914L152.419 93.1996L152.967 87.393L145.261 82.4827L144.672 88.664L142.999 106.138C142.817 107.967 143.009 109.815 143.562 111.568C144.116 113.321 145.02 114.944 146.22 116.337C147.42 117.73 148.89 118.865 150.542 119.672C152.194 120.479 153.993 120.942 155.829 121.033C157.666 121.124 159.502 120.841 161.225 120.2C162.949 119.56 164.524 118.576 165.855 117.308C167.187 116.04 168.247 114.514 168.97 112.824C169.694 111.134 170.067 109.314 170.066 107.475V86.9247C170.053 86.231 169.865 85.5518 169.519 84.9505C169.172 84.3492 168.679 83.8454 168.086 83.4862Z" fill="white"/>
<path d="M59.1908 43.3315C59.194 47.4868 57.9757 51.5513 55.6873 55.0196C53.3989 58.4879 50.1413 61.207 46.3198 62.8387C45.6365 63.1258 45.046 63.5966 44.6138 64.1988C44.1817 64.801 43.9248 65.5111 43.8715 66.2504C43.8046 66.9876 43.9429 67.7289 44.2711 68.3924C44.5993 69.0559 45.1046 69.6158 45.7311 70.01L52.956 74.6259L60.502 69.7692L55.7925 66.7321C60.6883 63.0159 64.2942 57.8566 66.1015 51.9818C67.9088 46.107 67.8263 39.813 65.8658 33.9876C63.9053 28.1621 60.1656 23.099 55.1741 19.5123C50.1826 15.9255 44.1912 13.9961 38.0447 13.9961C31.8982 13.9961 25.9067 15.9255 20.9152 19.5123C15.9237 23.099 12.1841 28.1621 10.2236 33.9876C8.26305 39.813 8.18066 46.107 9.98796 51.9818C11.7953 57.8566 15.401 63.0159 20.2969 66.7321L10.6905 72.8598C10.2069 73.1692 9.79385 73.5769 9.47807 74.0564C9.16228 74.5358 8.95086 75.0763 8.85752 75.6427L0.120819 129.869C-0.0566031 130.934 0.19607 132.025 0.823352 132.904C1.45063 133.782 2.40114 134.375 3.46567 134.552C4.5302 134.73 5.6216 134.477 6.4998 133.85C7.37799 133.222 7.97104 132.272 8.14846 131.207L8.84413 126.872L16.6042 78.7869L30.2913 70.0502C30.9327 69.6646 31.4535 69.1074 31.795 68.4415C32.1364 67.7756 32.2849 67.0275 32.2237 66.2817C32.1625 65.5359 31.894 64.822 31.4485 64.2207C31.003 63.6194 30.3983 63.1546 29.7027 62.8788C26.1811 61.3735 23.133 58.9426 20.8818 55.8443C18.6307 52.746 17.2607 49.0958 16.9172 45.2815C16.5736 41.4672 17.2694 37.631 18.9307 34.1803C20.592 30.7296 23.1568 27.7933 26.3527 25.6829C29.5485 23.5726 33.2563 22.3671 37.0821 22.1945C40.908 22.0219 44.7092 22.8885 48.0822 24.7025C51.4551 26.5164 54.2739 29.2099 56.2392 32.4969C58.2045 35.784 59.243 39.5419 59.2444 43.3716L59.1908 43.3315Z" fill="white"/>
<path d="M115.678 95.2749L114.019 86.672C115.763 85.144 116.999 83.1206 117.563 80.8717C118.127 78.6228 117.992 76.2554 117.176 74.0853C116.36 71.9152 114.901 70.0456 112.995 68.7259C111.088 67.4062 108.825 66.6992 106.507 66.6992C104.188 66.6992 101.925 67.4062 100.018 68.7259C98.1119 70.0456 96.6533 71.9152 95.837 74.0853C95.0208 76.2554 94.8857 78.6228 95.4497 80.8717C96.0138 83.1206 97.2501 85.144 98.9939 86.672L97.4553 94.6996L92.1036 122.288C91.9725 122.942 92.0066 123.619 92.2029 124.257C92.3991 124.894 92.7512 125.473 93.2274 125.94L103.57 136.283C103.944 136.667 104.391 136.973 104.885 137.181C105.379 137.39 105.91 137.497 106.446 137.497C106.983 137.497 107.513 137.39 108.008 137.181C108.502 136.973 108.949 136.667 109.323 136.283L119.678 125.94C120.155 125.473 120.507 124.894 120.703 124.257C120.899 123.619 120.933 122.942 120.802 122.288L115.678 95.2749ZM106.5 74.3897C107.23 74.3897 107.944 74.6063 108.551 75.012C109.159 75.4178 109.632 75.9945 109.911 76.6693C110.191 77.344 110.264 78.0865 110.122 78.8028C109.979 79.5191 109.627 80.1771 109.111 80.6935C108.594 81.21 107.937 81.5617 107.22 81.7042C106.504 81.8467 105.761 81.7735 105.087 81.494C104.412 81.2145 103.835 80.7412 103.429 80.1339C103.024 79.5267 102.807 78.8128 102.807 78.0824C102.807 77.103 103.196 76.1638 103.889 75.4712C104.581 74.7787 105.52 74.3897 106.5 74.3897ZM106.5 127.559L100.559 121.619L105.429 96.1981L106.5 90.6323L107.584 96.2917L112.44 121.565L106.5 127.559Z" fill="white"/>
<path d="M212.946 129.873L204.196 75.6461C204.128 75.174 203.969 74.7197 203.728 74.3081C203.401 73.7358 202.942 73.2496 202.39 72.8899L192.784 66.7621C197.678 63.0449 201.282 57.8854 203.088 52.0109C204.894 46.1364 204.81 39.8432 202.849 34.0187C200.888 28.1942 197.148 23.1321 192.157 19.5462C187.166 15.9602 181.175 14.0312 175.029 14.0312C168.883 14.0312 162.893 15.9602 157.901 19.5462C152.91 23.1321 149.17 28.1942 147.209 34.0187C145.248 39.8432 145.165 46.1364 146.971 52.0109C148.776 57.8854 152.38 63.0449 157.275 66.7621L152.485 69.826L160.031 74.6693L167.283 70.0401C167.924 69.6545 168.445 69.0973 168.786 68.4314C169.128 67.7655 169.276 67.0174 169.215 66.2716C169.154 65.5258 168.885 64.8119 168.44 64.2106C167.994 63.6093 167.39 63.1445 166.694 62.8687C162.199 60.9469 158.505 57.5319 156.237 53.201C153.97 48.8702 153.267 43.8891 154.248 39.0999C155.229 34.3107 157.833 30.007 161.621 26.9164C165.408 23.8258 170.147 22.1378 175.036 22.1378C179.925 22.1378 184.663 23.8258 188.451 26.9164C192.239 30.007 194.843 34.3107 195.824 39.0999C196.805 43.8891 196.102 48.8702 193.834 53.201C191.567 57.5319 187.873 60.9469 183.378 62.8687C182.682 63.1445 182.078 63.6093 181.632 64.2106C181.187 64.8119 180.918 65.5258 180.857 66.2716C180.796 67.0174 180.944 67.7655 181.286 68.4314C181.627 69.0973 182.148 69.6545 182.789 70.0401L196.463 78.7768L203.741 123.839L204.919 131.197C205.077 132.15 205.566 133.016 206.3 133.643C207.035 134.269 207.967 134.616 208.933 134.622C209.146 134.642 209.361 134.642 209.575 134.622C210.114 134.546 210.633 134.36 211.098 134.076C211.563 133.792 211.966 133.417 212.281 132.972C212.597 132.528 212.818 132.024 212.933 131.491C213.047 130.958 213.052 130.407 212.946 129.873Z" fill="white"/>
</g>
<defs>
<clipPath id="clip0_1341_539">
<rect width="213" height="136.711" fill="white" transform="translate(0 0.732422)"/>
</clipPath>
</defs>
</svg>
