<svg width="51" height="51" viewBox="0 0 51 51" fill="none" xmlns="http://www.w3.org/2000/svg">
<path d="M14.3337 2C15.667 2 21.0003 14 21.0003 15.3333C21.0003 18 17.0003 20.6667 15.667 23.3333C14.3337 26 17.0003 28.6667 19.667 31.3333C20.707 32.3733 25.0003 36.6667 27.667 35.3333C30.3337 34 33.0003 30 35.667 30C37.0003 30 49.0003 35.3333 49.0003 36.6667C49.0003 42 45.0003 46 41.0003 47.3333C37.0003 48.6667 34.3337 48.6667 29.0003 47.3333C23.667 46 19.667 44.6667 13.0003 38C6.33366 31.3333 5.00033 27.3333 3.66699 22C2.33366 16.6667 2.33366 14 3.66699 10C5.00033 6 9.00033 2 14.3337 2Z" stroke="#38377A" stroke-width="4" stroke-linecap="round" stroke-linejoin="round"/>
</svg>
