<svg width="20" height="20" viewBox="0 0 20 20" fill="none" xmlns="http://www.w3.org/2000/svg">
<path fill-rule="evenodd" clip-rule="evenodd" d="M9.99998 3.75C10.2854 3.74999 10.5438 3.91878 10.6584 4.18012L12.1353 7.54603L15.62 7.98075C15.8943 8.01498 16.1247 8.20348 16.2127 8.46561C16.3006 8.72774 16.2304 9.01706 16.0322 9.20979L13.4333 11.7365L14.1249 15.3969C14.1773 15.6741 14.0627 15.9563 13.8319 16.1186C13.6012 16.2809 13.2968 16.2932 13.0537 16.1501L10.0001 14.353L6.94637 16.1506C6.70324 16.2937 6.39888 16.2814 6.16809 16.1192C5.93729 15.9569 5.82271 15.6747 5.87509 15.3975L6.56677 11.737L3.96773 9.20913C3.76955 9.01638 3.69943 8.72708 3.78737 8.46498C3.8753 8.20288 4.10572 8.01441 4.38005 7.98019L7.86519 7.54547L9.34155 4.18016C9.45621 3.91881 9.71458 3.75001 9.99998 3.75Z" fill="#F9C980"/>
</svg>
