<svg width="25" height="25" viewBox="0 0 25 25" fill="none" xmlns="http://www.w3.org/2000/svg">
<path fill-rule="evenodd" clip-rule="evenodd" d="M12.5 4.6875C12.8567 4.68749 13.1797 4.89847 13.323 5.22515L15.1691 9.43254L19.525 9.97594C19.8679 10.0187 20.1559 10.2543 20.2658 10.582C20.3757 10.9097 20.288 11.2713 20.0402 11.5122L16.7916 14.6706L17.6561 19.2461C17.7216 19.5926 17.5784 19.9454 17.2899 20.1483C17.0015 20.3511 16.621 20.3665 16.3171 20.1876L12.5001 17.9413L8.68296 20.1883C8.37905 20.3672 7.9986 20.3518 7.71011 20.149C7.42161 19.9462 7.27839 19.5934 7.34387 19.2468L8.20846 14.6712L4.95966 11.5114C4.71194 11.2705 4.62429 10.9088 4.73421 10.5812C4.84413 10.2536 5.13215 10.018 5.47506 9.97524L9.83149 9.43184L11.6769 5.2252C11.8203 4.89851 12.1432 4.68751 12.5 4.6875Z" fill="#FFA008"/>
</svg>
